<svg xmlns="http://www.w3.org/2000/svg" width="1225" height="312" viewBox="0 0 1225 312">
    <g fill="none" fill-rule="evenodd">
        <path fill="#FFF" d="M0 0h49v312H0z"/>
        <path fill="#F4F7FB" d="M24.5 78C38.031 78 49 88.969 49 102.5V312H0V102.5C0 88.969 10.969 78 24.5 78zM98 0H49v287.5c0 13.531 10.969 24.5 24.5 24.5S98 301.031 98 287.5V0z"/>
        <path fill="#FFF" d="M98 0H49v108.5c0 13.531 10.969 24.5 24.5 24.5S98 122.031 98 108.5V0zM73.5 270C59.969 270 49 280.969 49 294.5V312h49v-17.5c0-13.531-10.969-24.5-24.5-24.5zM98 0h49v312H98z"/>
        <path fill="#F4F7FB" d="M122.5 30c13.531 0 24.5 10.969 24.5 24.5V312H98V54.5C98 40.969 108.969 30 122.5 30zM147 0h49v312h-49z"/>
        <path fill="#FFF" d="M196 0h49v312h-49z"/>
        <path fill="#F4F7FB" d="M220.5 70c13.531 0 24.5 10.969 24.5 24.5V312h-49V94.5c0-13.531 10.969-24.5 24.5-24.5zM245 0h49v312h-49z"/>
        <path fill="#FFF" d="M294 0h49v312h-49z"/>
        <path fill="#F4F7FB" d="M318.5 80c13.531 0 24.5 10.969 24.5 24.5V312h-49V104.5c0-13.531 10.969-24.5 24.5-24.5zM343 0h49v312h-49z"/>
        <path fill="#FFF" d="M392 0h49v312h-49z"/>
        <path fill="#F4F7FB" d="M416.5 30c13.531 0 24.5 10.969 24.5 24.5V312h-49V54.5c0-13.531 10.969-24.5 24.5-24.5zM441 0h49v312h-49z"/>
        <path fill="#FFF" d="M490 0h49v312h-49z"/>
        <path fill="#F4F7FB" d="M514.5 70c13.531 0 24.5 10.969 24.5 24.5V312h-49V94.5c0-13.531 10.969-24.5 24.5-24.5zM539 0h49v312h-49z"/>
        <path fill="#FFF" d="M588 0h49v312h-49z"/>
        <path fill="#F4F7FB" d="M612.5 90c13.531 0 24.5 10.969 24.5 24.5V312h-49V114.5c0-13.531 10.969-24.5 24.5-24.5zM637 0h49v312h-49z"/>
        <path fill="#FFF" d="M686 0h49v312h-49z"/>
        <path fill="#F4F7FB" d="M710.5 40c13.531 0 24.5 10.969 24.5 24.5V312h-49V64.5c0-13.531 10.969-24.5 24.5-24.5zM735 0h49v312h-49z"/>
        <path fill="#FFF" d="M784 0h49v312h-49z"/>
        <path fill="#F4F7FB" d="M808.5 110c13.531 0 24.5 10.969 24.5 24.5V312h-49V134.5c0-13.531 10.969-24.5 24.5-24.5zM833 0h49v312h-49z"/>
        <path fill="#FFF" d="M882 0h49v312h-49z"/>
        <path fill="#F4F7FB" d="M906.5 20c13.531 0 24.5 10.969 24.5 24.5V312h-49V44.5c0-13.531 10.969-24.5 24.5-24.5z"/>
        <path fill="#FFF" d="M980 0h49v312h-49z"/>
        <path fill="#F4F7FB" d="M1004.5 130c13.531 0 24.5 10.969 24.5 24.5V312h-49V154.5c0-13.531 10.969-24.5 24.5-24.5zM931 0h49v312h-49zM1029 0h49v312h-49z"/>
        <path fill="#FFF" d="M196 0h-49v108.5c0 13.531 10.969 24.5 24.5 24.5s24.5-10.969 24.5-24.5V0zM171.5 250c-13.531 0-24.5 10.969-24.5 24.5V312h49v-37.5c0-13.531-10.969-24.5-24.5-24.5zM294 0h-49v108.5c0 13.531 10.969 24.5 24.5 24.5s24.5-10.969 24.5-24.5V0zM272 290h-5c-12.15 0-22 9.85-22 22h49c0-12.15-9.85-22-22-22zM392 0h-49v188.5c0 13.531 10.969 24.5 24.5 24.5s24.5-10.969 24.5-24.5V0zM367.5 270c-13.531 0-24.5 10.969-24.5 24.5V312h49v-17.5c0-13.531-10.969-24.5-24.5-24.5zM490 0h-49v108.5c0 13.531 10.969 24.5 24.5 24.5s24.5-10.969 24.5-24.5V0zM465.5 180c-13.531 0-24.5 10.969-24.5 24.5V312h49V204.5c0-13.531-10.969-24.5-24.5-24.5zM588 0h-49v108.5c0 13.531 10.969 24.5 24.5 24.5s24.5-10.969 24.5-24.5V0zM563.5 250c-13.531 0-24.5 10.969-24.5 24.5V312h49v-37.5c0-13.531-10.969-24.5-24.5-24.5zM686 0h-49v218.5c0 13.531 10.969 24.5 24.5 24.5s24.5-10.969 24.5-24.5V0zM664 290h-5c-12.15 0-22 9.85-22 22h49c0-12.15-9.85-22-22-22zM784 0h-49v138.5c0 13.531 10.969 24.5 24.5 24.5s24.5-10.969 24.5-24.5V0zM759.5 230c-13.531 0-24.5 10.969-24.5 24.5V312h49v-57.5c0-13.531-10.969-24.5-24.5-24.5zM882 0h-49v168.5c0 13.531 10.969 24.5 24.5 24.5s24.5-10.969 24.5-24.5V0zM857.5 280c-13.531 0-24.5 10.969-24.5 24.5v7.5h49v-7.5c0-13.531-10.969-24.5-24.5-24.5zM980 0h-49v178.5c0 13.531 10.969 24.5 24.5 24.5s24.5-10.969 24.5-24.5V0zM955.5 250c-13.531 0-24.5 10.969-24.5 24.5V312h49v-37.5c0-13.531-10.969-24.5-24.5-24.5zM1078 0h-49v228.5c0 13.531 10.969 24.5 24.5 24.5s24.5-10.969 24.5-24.5V0zM1056 290h-5c-12.15 0-22 9.85-22 22h49c0-12.15-9.85-22-22-22zM1078 0h49v312h-49z"/>
        <path fill="#F4F7FB" d="M1102.5 70c13.531 0 24.5 10.969 24.5 24.5V312h-49V94.5c0-13.531 10.969-24.5 24.5-24.5zM1127 0h49v312h-49z"/>
        <path fill="#FFF" d="M1176 0h49v312h-49z"/>
        <path fill="#F4F7FB" d="M1200.5 20c13.531 0 24.5 10.969 24.5 24.5V312h-49V44.5c0-13.531 10.969-24.5 24.5-24.5z"/>
        <path fill="#FFF" d="M1176 0h-49v168.5c0 13.531 10.969 24.5 24.5 24.5s24.5-10.969 24.5-24.5V0zM1151.5 280c-13.531 0-24.5 10.969-24.5 24.5v7.5h49v-7.5c0-13.531-10.969-24.5-24.5-24.5z"/>
    </g>
</svg>
