<svg xmlns="http://www.w3.org/2000/svg" width="29" height="27" viewBox="0 0 29 27">
    <g fill="none" fill-rule="evenodd" stroke-width="1.25">
        <path stroke="#F6CDFF" d="M15.104 3.198c-.042.004-.071.024-.08.04l-1.068 1.998-.318.041-2.152.283c-.043.007-.07.028-.077.045-.001.004 0 .008.007.015l1.79 1.665-.049.326-.305 2.028c0 .005.004.014.024.027a.146.146 0 0 0 .136.008l2.105-.973.262.122 1.844.852c.043.02.099.016.135-.009.02-.013.024-.022.024-.025l-.354-2.356.241-.225 1.544-1.435c.012-.012.013-.016.011-.02-.006-.017-.033-.038-.069-.044l-2.478-.325-.151-.284-.915-1.711c-.013-.024-.055-.047-.107-.043zm5.58 16.02c-.042.005-.072.024-.08.04l-1.068 1.998-.318.042-2.152.283c-.044.006-.07.027-.077.044-.001.004 0 .008.006.015l1.79 1.665-.048.326-.305 2.028c0 .005.003.014.023.028a.146.146 0 0 0 .136.008l2.106-.973.262.12 1.844.853c.043.02.099.016.135-.008.02-.014.024-.023.024-.026l-.355-2.356.242-.224 1.544-1.436c.012-.012.013-.016.011-.02-.006-.017-.033-.038-.069-.043l-2.478-.326-.151-.283-.915-1.712c-.013-.024-.056-.046-.108-.043zm-11.957 0c-.041.005-.071.024-.08.04l-1.068 1.998-.318.042-2.152.283c-.043.006-.07.027-.077.044-.001.004 0 .008.007.015l1.79 1.665-.049.326-.305 2.028c0 .005.004.014.024.028a.146.146 0 0 0 .136.008l2.105-.973.262.12 1.844.853c.043.02.099.016.135-.008.02-.014.025-.023.024-.026l-.354-2.356.241-.224 1.544-1.436c.012-.012.013-.016.012-.02-.006-.017-.034-.038-.07-.043L9.9 21.256l-.151-.283-.914-1.712c-.013-.024-.056-.046-.108-.043zM6.335 9.301c-.04.004-.07.024-.08.04l-1.067 1.997-.318.042-2.152.283c-.044.006-.071.028-.077.045-.002.004 0 .008.006.015l1.79 1.665-.048.326-.305 2.028c-.001.005.003.014.023.027a.146.146 0 0 0 .136.008l2.106-.973.262.121 1.844.853c.043.02.098.016.135-.009.02-.013.024-.022.024-.025l-.355-2.356.242-.225 1.544-1.435c.012-.012.013-.016.011-.02-.006-.017-.033-.039-.069-.044l-2.478-.326-.151-.283-.915-1.711c-.013-.024-.056-.047-.108-.043zm18.334 0c-.041.004-.071.024-.08.04l-1.067 1.997-.319.042-2.152.283c-.043.006-.07.028-.076.045-.002.004 0 .008.006.015l1.79 1.665-.049.326-.305 2.028c0 .005.004.014.024.027a.146.146 0 0 0 .136.008l2.105-.973.262.121 1.844.853c.044.02.1.016.135-.009.02-.013.025-.022.024-.025l-.354-2.356.242-.225 1.543-1.435c.012-.012.013-.016.012-.02-.006-.017-.034-.039-.07-.044l-2.477-.326-.152-.283-.914-1.711c-.013-.024-.056-.047-.108-.043z"/>
        <path stroke="#C52DE5" d="M13.104 1.198c-.042.004-.071.024-.08.04l-1.068 1.998-.318.041-2.152.283c-.043.007-.07.028-.077.045-.001.004 0 .008.007.015l1.79 1.665-.049.326-.305 2.028c0 .005.004.014.024.027a.146.146 0 0 0 .136.008l2.105-.973.262.122 1.844.852c.043.02.099.016.135-.009.02-.013.024-.022.024-.025l-.354-2.356.241-.225 1.544-1.435c.012-.012.013-.016.011-.02-.006-.017-.033-.038-.069-.044l-2.478-.325-.151-.284-.915-1.711c-.013-.024-.055-.047-.107-.043zm5.58 16.02c-.042.005-.072.024-.08.04l-1.068 1.998-.318.042-2.152.283c-.044.006-.07.027-.077.044-.001.004 0 .008.006.015l1.79 1.665-.048.326-.305 2.028c0 .005.003.014.023.028a.146.146 0 0 0 .136.008l2.106-.973.262.12 1.844.853c.043.02.099.016.135-.008.02-.014.024-.023.024-.026l-.355-2.356.242-.224 1.544-1.436c.012-.012.013-.016.011-.02-.006-.017-.033-.038-.069-.043l-2.478-.326-.151-.283-.915-1.712c-.013-.024-.056-.046-.108-.043zm-11.957 0c-.041.005-.071.024-.08.04l-1.068 1.998-.318.042-2.152.283c-.043.006-.07.027-.077.044-.001.004 0 .008.007.015l1.79 1.665-.049.326-.305 2.028c0 .005.004.014.024.028a.146.146 0 0 0 .136.008l2.105-.973.262.12 1.844.853c.043.02.099.016.135-.008.02-.014.025-.023.024-.026l-.354-2.356.241-.224 1.544-1.436c.012-.012.013-.016.012-.02-.006-.017-.034-.038-.07-.043L7.9 19.256l-.151-.283-.914-1.712c-.013-.024-.056-.046-.108-.043zM4.335 7.301c-.04.004-.07.024-.08.04L3.188 9.338l-.318.042-2.152.283c-.044.006-.071.028-.077.045-.002.004 0 .008.006.015l1.79 1.665-.048.326-.305 2.028c-.001.005.003.014.023.027a.146.146 0 0 0 .136.008l2.106-.973.262.121 1.844.853c.043.02.098.016.135-.009.02-.013.024-.022.024-.025l-.355-2.356.242-.225 1.544-1.435c.012-.012.013-.016.011-.02-.006-.017-.033-.039-.069-.044l-2.478-.326-.151-.283-.915-1.711c-.013-.024-.056-.047-.108-.043zm18.334 0c-.041.004-.071.024-.08.04l-1.067 1.997-.319.042-2.152.283c-.043.006-.07.028-.076.045-.002.004 0 .008.006.015l1.79 1.665-.049.326-.305 2.028c0 .005.004.014.024.027a.146.146 0 0 0 .136.008l2.105-.973.262.121 1.844.853c.044.02.1.016.135-.009.02-.013.025-.022.024-.025l-.354-2.356.242-.225 1.543-1.435c.012-.012.013-.016.012-.02-.006-.017-.034-.039-.07-.044l-2.477-.326-.152-.283-.914-1.711c-.013-.024-.056-.047-.108-.043z"/>
    </g>
</svg>
