<svg xmlns="http://www.w3.org/2000/svg" width="31" height="13" viewBox="0 0 31 13">
    <g fill="none" fill-rule="nonzero">
        <path fill="#F6CCFF" d="M30.998 4.729c0 .64-.062.728-.61 1.006-.546.277-.65 1.281-.718 1.822-.069.541-.198 1.556-.554 2.703-.354 1.147-1.367 2.577-4.426 2.577-3.058 0-4.3-1.162-4.923-1.948-.623-.787-1.489-3.593-1.715-4.275-.226-.68-1.052-.628-1.052-.628 0-.011-.824-.064-1.05.618-.227.683-1.093 3.494-1.716 4.282-.622.787-1.865 1.951-4.924 1.951s-4.071-1.432-4.426-2.581c-.355-1.15-.485-2.165-.553-2.708-.069-.542-.173-1.548-.72-1.825-.546-.277-.609-.367-.609-1.008 0-.64-.08-.996.664-1.133s4.268-.808 7.193-.503c2.925.305 3.418 1.07 6.141 1.07 2.723.014 3.216-.75 6.141-1.055 2.925-.305 6.448.366 7.192.503.744.137.665.492.665 1.132zm-17.625.704c-1.03-.746-.786-.476-2.337-.657-.171.776.294 4.255-4.819 4.403-.091.878-.263-.162.517 1.182.78 1.345 2.86 1.603 4.596.964 1.736-.64 2.087-2.584 2.321-3.482.235-.897.374-1.937-.278-2.41zm14.45 1.073c.003-1.2-.557-1.681-2.296-1.72-.054 1.335 0 4.582-4.899 4.255.567 1.145.25 1.666 2.043 2.285 1.793.618 3.816.38 4.595-.964.78-1.344.556-2.975.558-3.856z"/>
        <path fill="#C52DE5" d="M27.998 1.729c0 .64-.062.728-.61 1.006-.546.277-.65 1.281-.718 1.822-.069.541-.198 1.556-.554 2.703-.354 1.147-1.367 2.577-4.426 2.577-3.058 0-4.3-1.162-4.923-1.948-.623-.787-1.489-3.593-1.715-4.275-.226-.68-1.052-.628-1.052-.628v-.011s-.824-.053-1.05.63c-.227.682-1.093 3.493-1.716 4.28-.622.788-1.865 1.952-4.924 1.952S2.24 8.405 1.884 7.256c-.355-1.15-.485-2.165-.553-2.708C1.262 4.006 1.158 3 .61 2.723.065 2.446.002 2.356.002 1.715c0-.64-.08-.996.664-1.133S4.934-.226 7.86.08c2.925.305 3.418 1.07 6.141 1.07v.014c2.723 0 3.216-.764 6.141-1.069 2.925-.305 6.448.366 7.192.503.744.137.665.492.665 1.132zm-17.625.704c-1.03-.746-2.058-.892-3.621-.857-2.905.066-3.578.73-3.576 1.928.002.881-.222 2.513.558 3.857.78 1.345 2.86 1.603 4.596.964 1.736-.64 2.087-2.584 2.321-3.482.235-.897.374-1.937-.278-2.41zm14.45 1.073c.003-1.2-.67-1.863-3.574-1.928-1.563-.036-2.59.111-3.62.857-.653.472-.514 1.512-.279 2.41.235.897.585 2.842 2.32 3.48 1.738.64 3.817.381 4.596-.963.78-1.344.556-2.975.558-3.856z"/>
    </g>
</svg>
