<svg xmlns="http://www.w3.org/2000/svg" width="28" height="23" viewBox="0 0 28 23">
    <g fill="none" fill-rule="nonzero">
        <path fill="#FFD4D6" d="M23.528 2H7.544L3 7.971l12.476 14.39L28 7.977 23.528 2zm-3.842 6.67h5.848l-8.875 10.195L19.686 8.67zm.867-1.404l2.571-3.462 2.59 3.462h-5.161z"/>
        <path fill="#F8454B" d="M20.528 0H4.544L0 5.971l12.476 14.39L25 5.977 20.528 0zm-5.307 6.67l-2.786 9.383L9.65 6.67h5.572zm-5.08-1.404l2.413-3.249 2.413 3.249H10.14zm3.707-3.862h4.824L16.26 4.651l-2.412-3.247zM8.885 4.601L6.511 1.404h4.749L8.885 4.601zm-1.255.665H2.301l2.697-3.543L7.63 5.266zm.554 1.404l2.98 10.034-8.7-10.034h5.72zm8.502 0h5.848l-8.875 10.195L16.686 6.67zm.867-1.404l2.571-3.462 2.59 3.462h-5.161z"/>
    </g>
</svg>
