<svg xmlns="http://www.w3.org/2000/svg" width="21" height="27" viewBox="0 0 21 27">
    <g fill="none" fill-rule="nonzero">
        <path fill="#F6CDFF" d="M20.784 14.226a.834.834 0 1 0-1.668 0c0 3.984-3.24 7.225-7.224 7.225s-7.225-3.241-7.225-7.225a.834.834 0 1 0-1.667 0c0 4.622 3.545 8.43 8.058 8.852v2.255H9.113a.834.834 0 1 0 0 1.667h5.558a.834.834 0 1 0 0-1.667h-1.946v-2.255c4.514-.422 8.059-4.23 8.059-8.852zm-8.892 5.836a5.842 5.842 0 0 0 5.835-5.836v-6.39A5.842 5.842 0 0 0 11.892 2a5.842 5.842 0 0 0-5.835 5.835v6.391a5.842 5.842 0 0 0 5.835 5.836zm1.15-15.65c.49-.653 2.698.827 2.975 2.86h-1.624a.834.834 0 1 0 0 1.666h1.667v1.112h-1.667a.834.834 0 1 0 0 1.667h1.667v1.112h-1.667a.834.834 0 1 0 0 1.667h1.653c-.14 2.173-6.655 6.229-4.154 3.898 2.5-2.33.661-13.33 1.15-13.982z"/>
        <path fill="#C52DE5" d="M17.784 12.226a.834.834 0 1 0-1.668 0c0 3.984-3.24 7.225-7.224 7.225s-7.225-3.241-7.225-7.225a.834.834 0 1 0-1.667 0c0 4.622 3.545 8.43 8.058 8.852v2.255H6.113a.834.834 0 1 0 0 1.667h5.558a.834.834 0 1 0 0-1.667H9.725v-2.255c4.514-.422 8.059-4.23 8.059-8.852zm-8.892 5.836a5.842 5.842 0 0 0 5.835-5.836v-6.39A5.842 5.842 0 0 0 8.892 0a5.842 5.842 0 0 0-5.835 5.835v6.391a5.842 5.842 0 0 0 5.835 5.836zm0-16.395a4.171 4.171 0 0 1 4.125 3.604h-1.624a.834.834 0 1 0 0 1.667h1.667V8.05h-1.667a.834.834 0 1 0 0 1.667h1.667v1.112h-1.667a.834.834 0 1 0 0 1.667h1.653a4.17 4.17 0 0 1-4.154 3.898 4.17 4.17 0 0 1-4.155-3.898h1.654a.834.834 0 1 0 0-1.667H4.724V9.717H6.39a.834.834 0 1 0 0-1.667H4.724V6.938H6.39a.834.834 0 1 0 0-1.667H4.767a4.171 4.171 0 0 1 4.125-3.604z"/>
    </g>
</svg>
