<svg xmlns="http://www.w3.org/2000/svg" width="22" height="22" viewBox="0 0 22 22">
    <g fill="none" fill-rule="nonzero">
        <path fill="#F6CCFF" d="M12.5 22C5.111 22 3 19.884 3 12.5S5.111 3 12.5 3c7.389 0 9.5 2.116 9.5 9.5S19.889 22 12.5 22zm0-16.889c-6.216 0-7.389 1.174-7.389 7.389a13.829 13.829 0 0 0 .588 4.818l2.579-2.707 2.11 2.111 5.279-5.278 4.064 4.067c.102-.806.16-1.74.16-2.688l-.002-.34c0-6.2-1.172-7.373-7.389-7.373v.001zM8.806 10.39a1.584 1.584 0 1 1 0-3.168 1.584 1.584 0 0 1 0 3.168z"/>
        <path fill="#C735E7" d="M9.5 19C2.111 19 0 16.884 0 9.5S2.111 0 9.5 0C16.889 0 19 2.116 19 9.5S16.889 19 9.5 19zm-5.88-3.536c1.172 1.213 4.02 1.749 6.5 1.592 2.48-.157 4.967-.649 5.97-2.596-2.174-2.147-3.348-3.294-3.521-3.439L7.64 15.818 5.295 13.8 3.62 15.464zm-1.6-6.2A13.216 13.216 0 0 0 2.616 14l2.614-2.66 2.14 2.075 5.349-5.188 4.118 3.998c.104-.793.163-1.711.163-2.643l-.002-.335C16.998 3.153 15.81 2 9.509 2c-6.3.001-7.489 1.155-7.489 7.264zM5.5 7a1.5 1.5 0 1 1 .001-3.001A1.5 1.5 0 0 1 5.5 7z"/>
    </g>
</svg>
