<svg xmlns="http://www.w3.org/2000/svg" width="20" height="20" viewBox="0 0 20 20">
    <g fill="none" fill-rule="nonzero">
        <path fill="#F6CCFF" d="M15.682 13.063l3.699-2.526c.119-.094.26-.189.379-.33.094-.141.236-.33.236-.66.024-.189-.07-.424-.19-.566a1.056 1.056 0 0 0-.543-.33 1.655 1.655 0 0 0-.474-.07l-4.786-.328a.496.496 0 0 1-.26-.094c-.095-.07-.166-.189-.166-.236l-1.562-4.98c-.07-.165-.117-.33-.237-.495a1.005 1.005 0 0 0-.78-.448 1.008 1.008 0 0 0-.781.448 1.5 1.5 0 0 0-.213.495L8.42 7.923c0 .047-.07.165-.166.236a.497.497 0 0 1-.26.094l-4.786.327c-.213 0-.403.024-.639.118-.119.047-.237.142-.379.283A.957.957 0 0 0 2 9.547c0 .33.142.519.26.66.118.141.237.236.379.33l3.722 2.55c.07.023.212.259.189.424v.094l-1.376 4.91c-.047.164-.095.306-.095.495 0 .165.024.377.19.613.131.218.447.356.68.356.019 0 .036 0 .053-.003.45-.023.64-.188.852-.354l3.955-2.976c.024-.047.118-.07.213-.07.118 0 .189.023.237.07l4.167 3c.237.165.403.33.851.354h.024a.935.935 0 0 0 .71-.377 1.02 1.02 0 0 0 .166-.59c0-.188-.024-.354-.094-.542l-1.59-4.933v-.094c-.023-.141.119-.377.19-.401zm-1.015-1.486a2.314 2.314 0 0 0-.973 1.948v.316l.087.27.894 2.777-4.323-2.778c-.288-.229-.895-1.544-.734-2.798.153-1.19.615-3.049 1.387-5.576l.833 2.657a2.273 2.273 0 0 0 2.071 1.658l2.72.186-1.962 1.34z"/>
        <path fill="#C52DE5" d="M9.016 12.873c.093.04 1.105.488 1.38.706l3.015 2.26-1.31-3.653-.087-.27v-.315a2.314 2.314 0 0 1 .974-1.949l2.667-1.669-3.64-.208a2.273 2.273 0 0 1-2.071-1.658l-.922-3.356v-.048l-.007.024-.006-.024v.048l-.921 3.356a2.273 2.273 0 0 1-2.071 1.658l-3.641.208 2.667 1.669a2.314 2.314 0 0 1 .974 1.948v.316l-.087.27-1.166 3.663 2.895-2.238c.275-.22 1.268-.696 1.357-.738zm4.666-1.81c-.07.024-.212.26-.189.4v.095l1.59 4.933c.07.188.094.354.094.542 0 .165-.024.377-.166.59a.943.943 0 0 1-.734.377c-.448-.024-.614-.189-.85-.354l-4.168-3c-.048-.047-.119-.07-.237-.07-.095 0-.19.023-.213.07l-3.955 2.976c-.213.166-.402.331-.905.357-.233 0-.549-.138-.68-.356a1.003 1.003 0 0 1-.19-.613c0-.189.048-.33.095-.495l1.376-4.91v-.094c.023-.165-.119-.401-.189-.425L.639 8.537a1.634 1.634 0 0 1-.379-.33c-.118-.141-.26-.33-.26-.66 0-.189.07-.424.19-.566.141-.141.26-.236.378-.283.236-.094.426-.118.639-.118l4.786-.327a.497.497 0 0 0 .26-.094c.095-.07.166-.189.166-.236L8.004.943a1.5 1.5 0 0 1 .213-.495c.118-.166.355-.425.781-.448.425.023.662.282.78.448.12.165.166.33.237.495l1.562 4.98c0 .047.071.165.166.236a.496.496 0 0 0 .26.094l4.786.327c.166 0 .308.024.474.071.166.047.354.118.543.33.12.142.214.377.19.566 0 .33-.142.519-.236.66-.119.141-.26.236-.379.33l-3.699 2.526z"/>
    </g>
</svg>
